<svg id="Layer_1" data-name="Layer 1" xmlns="http://www.w3.org/2000/svg" viewBox="0 0 100 100"><defs><style>.cls-1{fill:#fff;}</style></defs><path class="cls-1" d="M48.7,20c13.4,0,23.08,9.66,22.87,21.38-.07,4.07-1.73,7.72-3.46,11.3C63.42,62.36,57.34,71.17,51,79.79c-.38.52-.65.94-1.24.14-7-9.5-13.65-19.17-18.51-30-3-6.71-3-13.27.83-19.6C36.18,23.58,42.37,20.24,48.7,20ZM60.56,41.28A10.27,10.27,0,1,0,50.32,51.54,10.26,10.26,0,0,0,60.56,41.28Z"/><path class="cls-1" d="M75.87,100H24.13A24.16,24.16,0,0,1,0,75.87V24.13A24.16,24.16,0,0,1,24.13,0H75.87A24.16,24.16,0,0,1,100,24.13V75.87A24.16,24.16,0,0,1,75.87,100ZM24.13,3.75A20.4,20.4,0,0,0,3.75,24.13V75.87A20.4,20.4,0,0,0,24.13,96.25H75.87A20.4,20.4,0,0,0,96.25,75.87V24.13A20.4,20.4,0,0,0,75.87,3.75Z"/></svg>