<svg xmlns="http://www.w3.org/2000/svg" viewBox="0 0 66.49 66.49"><defs><style>.cls-1{fill:#fff;}</style></defs><g id="Layer_2" data-name="Layer 2"><g id="Laptop"><path class="cls-1" d="M32.38,13.3c8.91,0,15.35,6.42,15.21,14.22,0,2.7-1.15,5.13-2.3,7.51a115.56,115.56,0,0,1-11.4,18c-.26.34-.44.62-.83.09C28.43,46.83,24,40.4,20.75,33.21c-2-4.46-2-8.82.55-13A13.54,13.54,0,0,1,32.38,13.3Zm7.89,14.15a6.83,6.83,0,1,0-6.81,6.82A6.82,6.82,0,0,0,40.27,27.45Z"/><path class="cls-1" d="M50.45,66.49H16.05a16.07,16.07,0,0,1-16-16V16.05A16.07,16.07,0,0,1,16.05,0h34.4a16.07,16.07,0,0,1,16,16.05v34.4A16.06,16.06,0,0,1,50.45,66.49Zm-34.4-64A13.57,13.57,0,0,0,2.49,16.05v34.4A13.57,13.57,0,0,0,16.05,64h34.4A13.57,13.57,0,0,0,64,50.45V16.05A13.57,13.57,0,0,0,50.45,2.49Z"/></g></g></svg>