<svg xmlns="http://www.w3.org/2000/svg" viewBox="0 0 188.91 193.98"><defs><style>.cls-1{fill:#91f6ff;}</style></defs><g id="Layer_2" data-name="Layer 2"><g id="Laptop"><path class="cls-1" d="M188.91,81.68a35,35,0,0,0-13.92-28,5.55,5.55,0,0,1-2-2.89,41.48,41.48,0,0,0-49.82-28.68,5.58,5.58,0,0,1-5.93-2.25A45.8,45.8,0,0,0,33.93,41.38a5.55,5.55,0,0,1-3.15,4.5c-.55.26-1.11.55-1.65.85a5.87,5.87,0,0,1-1.48.56A35.55,35.55,0,0,0,7.88,59.52,34.74,34.74,0,0,0,0,81.68a35.39,35.39,0,0,0,35.45,35.25h118A35.39,35.39,0,0,0,188.91,81.68Z"/><path class="cls-1" d="M50,167.59a5.75,5.75,0,0,0,1.63-.24,5.58,5.58,0,0,0,3.69-7l-6.7-21.88A5.57,5.57,0,1,0,38,141.77l6.7,21.88A5.58,5.58,0,0,0,50,167.59Z"/><path class="cls-1" d="M80.57,194a5.43,5.43,0,0,0,1.63-.25,5.56,5.56,0,0,0,3.69-6.95l-6.7-21.88a5.57,5.57,0,1,0-10.65,3.26L75.24,190A5.58,5.58,0,0,0,80.57,194Z"/><path class="cls-1" d="M119.42,159.8a5.57,5.57,0,0,0-3.69,7l6.71,21.88a5.56,5.56,0,0,0,5.32,3.94,5.43,5.43,0,0,0,1.63-.25,5.56,5.56,0,0,0,3.7-7l-6.71-21.88A5.57,5.57,0,0,0,119.42,159.8Z"/><path class="cls-1" d="M96.65,167.59a5.75,5.75,0,0,0,1.63-.24,5.58,5.58,0,0,0,3.69-7l-6.7-21.88a5.57,5.57,0,1,0-10.65,3.26l6.7,21.88A5.58,5.58,0,0,0,96.65,167.59Z"/><path class="cls-1" d="M143.29,167.59a5.75,5.75,0,0,0,1.63-.24,5.58,5.58,0,0,0,3.69-7l-6.7-21.88a5.57,5.57,0,1,0-10.65,3.26l6.7,21.88A5.58,5.58,0,0,0,143.29,167.59Z"/></g></g></svg>