<svg id="Layer_1" data-name="Layer 1" xmlns="http://www.w3.org/2000/svg" viewBox="0 0 100 100"><defs><style>.cls-1{fill:#91f6ff;}</style></defs><path class="cls-1" d="M98.69,42.11a18,18,0,0,0-7.17-14.44,2.83,2.83,0,0,1-1-1.49A21.39,21.39,0,0,0,64.81,11.4a2.85,2.85,0,0,1-3.05-1.16,23.61,23.61,0,0,0-43,11.09,2.87,2.87,0,0,1-1.62,2.32c-.29.14-.58.28-.85.44a3,3,0,0,1-.77.29,18.42,18.42,0,0,0-10.19,6.3A17.91,17.91,0,0,0,1.31,42.11,18.24,18.24,0,0,0,19.58,60.28H80.42A18.24,18.24,0,0,0,98.69,42.11Z"/><path class="cls-1" d="M27.09,86.4a2.72,2.72,0,0,0,.84-.13,2.87,2.87,0,0,0,1.9-3.59L26.38,71.4a2.87,2.87,0,0,0-5.49,1.68l3.45,11.29A2.89,2.89,0,0,0,27.09,86.4Z"/><path class="cls-1" d="M42.84,100a2.72,2.72,0,0,0,.84-.13,2.87,2.87,0,0,0,1.91-3.58L42.13,85a2.87,2.87,0,1,0-5.49,1.68L40.1,98A2.86,2.86,0,0,0,42.84,100Z"/><path class="cls-1" d="M62.87,82.38A2.87,2.87,0,0,0,61,86l3.46,11.28a2.87,2.87,0,0,0,2.74,2,2.72,2.72,0,0,0,.84-.13,2.87,2.87,0,0,0,1.91-3.58L66.46,84.28A2.88,2.88,0,0,0,62.87,82.38Z"/><path class="cls-1" d="M51.13,86.4a2.72,2.72,0,0,0,.84-.13,2.88,2.88,0,0,0,1.91-3.59L50.42,71.4a2.87,2.87,0,0,0-5.49,1.68l3.46,11.29A2.86,2.86,0,0,0,51.13,86.4Z"/><path class="cls-1" d="M75.17,86.4a2.79,2.79,0,0,0,.85-.13,2.88,2.88,0,0,0,1.9-3.59L74.46,71.4A2.87,2.87,0,0,0,69,73.08l3.46,11.29A2.88,2.88,0,0,0,75.17,86.4Z"/></svg>