<svg xmlns="http://www.w3.org/2000/svg" viewBox="0 0 154.85 156.04"><defs><style>.cls-1{fill:#fff;}</style></defs><g id="Layer_2" data-name="Layer 2"><g id="Laptop"><path class="cls-1" d="M142,43.56a4.5,4.5,0,0,1-1.61-2.34A33.78,33.78,0,0,0,108.09,17a34.14,34.14,0,0,0-8.13,1,4.51,4.51,0,0,1-4.81-1.82A37.15,37.15,0,0,0,27.54,33.58,4.55,4.55,0,0,1,25,37.23c-.45.21-.9.44-1.34.69a4.36,4.36,0,0,1-1.2.45,28.91,28.91,0,0,0-16,9.93,28.12,28.12,0,0,0-6.4,18,28.71,28.71,0,0,0,28.77,28.6h95.76a28.71,28.71,0,0,0,28.76-28.6A28.35,28.35,0,0,0,142,43.56Z"/><path class="cls-1" d="M140.79,114.36a4.52,4.52,0,0,0-4.52-4.52H17.57a4.52,4.52,0,0,0,0,9h118.7A4.52,4.52,0,0,0,140.79,114.36Z"/><path class="cls-1" d="M129.73,147H11a4.52,4.52,0,0,0,0,9h118.7a4.52,4.52,0,0,0,0-9Z"/><path class="cls-1" d="M37.91,128.67a4.52,4.52,0,1,0,0,9h43.5a4.52,4.52,0,1,0,0-9Z"/><path class="cls-1" d="M150.33,128.67h-43.5a4.52,4.52,0,1,0,0,9h43.5a4.52,4.52,0,0,0,0-9Z"/></g></g></svg>