<svg id="Layer_1" data-name="Layer 1" xmlns="http://www.w3.org/2000/svg" viewBox="0 0 100 100"><defs><style>.cls-1{fill:#fff;}</style></defs><path class="cls-1" d="M91.7,27.74a3,3,0,0,1-1-1.51,21.78,21.78,0,0,0-26.1-15A2.91,2.91,0,0,1,61.45,10,24,24,0,0,0,17.78,21.3a2.92,2.92,0,0,1-1.65,2.36c-.29.14-.58.28-.86.44a2.86,2.86,0,0,1-.78.3A18.64,18.64,0,0,0,4.13,30.81,18.18,18.18,0,0,0,0,42.42,18.55,18.55,0,0,0,18.58,60.89H80.42A18.54,18.54,0,0,0,99,42.42,18.33,18.33,0,0,0,91.7,27.74Z"/><path class="cls-1" d="M90.92,73.47A2.92,2.92,0,0,0,88,70.55H11.35a2.92,2.92,0,0,0,0,5.84H88A2.92,2.92,0,0,0,90.92,73.47Z"/><path class="cls-1" d="M83.78,94.55H7.13a2.92,2.92,0,1,0,0,5.83H83.78a2.92,2.92,0,1,0,0-5.83Z"/><path class="cls-1" d="M24.48,82.71a2.92,2.92,0,0,0,0,5.84H52.57a2.92,2.92,0,0,0,0-5.84Z"/><path class="cls-1" d="M97.08,82.71H69a2.92,2.92,0,0,0,0,5.84H97.08a2.92,2.92,0,0,0,0-5.84Z"/></svg>