<svg id="Layer_1" data-name="Layer 1" xmlns="http://www.w3.org/2000/svg" viewBox="0 0 100 100"><defs><style>.cls-1{fill:#e6c705;}</style></defs><circle class="cls-1" cx="50" cy="50" r="24.88" transform="translate(-8.52 10.3) rotate(-10.85)"/><path class="cls-1" d="M47.35,13.86a2.65,2.65,0,1,0,5.3,0V2.65a2.65,2.65,0,0,0-5.3,0Z"/><path class="cls-1" d="M47.35,86.14V97.35a2.65,2.65,0,0,0,5.3,0V86.14a2.65,2.65,0,0,0-5.3,0Z"/><path class="cls-1" d="M31.93,21.35A2.61,2.61,0,0,0,33.25,21a2.64,2.64,0,0,0,1-3.62l-5.6-9.71A2.65,2.65,0,1,0,24,10.32L29.64,20A2.64,2.64,0,0,0,31.93,21.35Z"/><path class="cls-1" d="M66.74,79a2.65,2.65,0,0,0-1,3.62l5.6,9.71A2.65,2.65,0,0,0,76,89.68L70.36,80A2.66,2.66,0,0,0,66.74,79Z"/><path class="cls-1" d="M6.7,25a2.65,2.65,0,0,0,1,3.62l9.71,5.6A2.65,2.65,0,1,0,20,29.64L10.32,24A2.65,2.65,0,0,0,6.7,25Z"/><path class="cls-1" d="M92.33,71.38l-9.71-5.6A2.65,2.65,0,1,0,80,70.36L89.68,76a2.67,2.67,0,0,0,1.33.35,2.65,2.65,0,0,0,1.32-4.94Z"/><path class="cls-1" d="M16.51,50a2.65,2.65,0,0,0-2.65-2.65H2.65a2.65,2.65,0,0,0,0,5.3H13.86A2.65,2.65,0,0,0,16.51,50Z"/><path class="cls-1" d="M97.35,47.35H86.14a2.65,2.65,0,0,0,0,5.3H97.35a2.65,2.65,0,1,0,0-5.3Z"/><path class="cls-1" d="M17.38,65.78l-9.71,5.6A2.65,2.65,0,0,0,10.32,76L20,70.36a2.65,2.65,0,1,0-2.65-4.58Z"/><path class="cls-1" d="M89.68,24,80,29.64a2.65,2.65,0,1,0,2.65,4.58l9.71-5.6A2.65,2.65,0,0,0,89.68,24Z"/><path class="cls-1" d="M29.64,80,24,89.68a2.65,2.65,0,1,0,4.59,2.65l5.6-9.71A2.65,2.65,0,1,0,29.64,80Z"/><path class="cls-1" d="M66.74,21a2.67,2.67,0,0,0,1.33.35A2.64,2.64,0,0,0,70.36,20L76,10.32a2.65,2.65,0,0,0-4.59-2.65l-5.6,9.71A2.65,2.65,0,0,0,66.74,21Z"/></svg>