<svg xmlns="http://www.w3.org/2000/svg" viewBox="0 0 187.22 100.59"><defs><style>.cls-1{fill:#edffb5;}</style></defs><g id="Layer_2" data-name="Layer 2"><g id="Laptop"><path class="cls-1" d="M148.72,61.76l-.24,0A29.32,29.32,0,0,0,106,25.31,40.83,40.83,0,0,0,27.38,40.83a39.55,39.55,0,0,0,.34,5h-.34a27.38,27.38,0,1,0,0,54.75H148.72a19.42,19.42,0,1,0,0-38.83Z"/><path class="cls-1" d="M133.63,6.73H71.57a3.35,3.35,0,0,1-3.36-3.36h0A3.36,3.36,0,0,1,71.57,0h62.06A3.37,3.37,0,0,1,137,3.37h0A3.36,3.36,0,0,1,133.63,6.73Z"/><path class="cls-1" d="M183.86,6.73h-36a3.36,3.36,0,0,1-3.37-3.36h0A3.37,3.37,0,0,1,147.85,0h36a3.36,3.36,0,0,1,3.36,3.37h0A3.35,3.35,0,0,1,183.86,6.73Z"/><path class="cls-1" d="M159.11,27.55H122a3.37,3.37,0,0,1-3.37-3.37h0A3.37,3.37,0,0,1,122,20.81h37.12a3.37,3.37,0,0,1,3.37,3.37h0A3.37,3.37,0,0,1,159.11,27.55Z"/><path class="cls-1" d="M183.67,27.55h-9.85a3.36,3.36,0,0,1-3.36-3.37h0a3.36,3.36,0,0,1,3.36-3.37h9.85A3.37,3.37,0,0,1,187,24.18h0A3.37,3.37,0,0,1,183.67,27.55Z"/><path class="cls-1" d="M183.67,68.26H122a3.37,3.37,0,0,1-3.37-3.37h0A3.37,3.37,0,0,1,122,61.53h61.68A3.37,3.37,0,0,1,187,64.89h0A3.37,3.37,0,0,1,183.67,68.26Z"/><path class="cls-1" d="M183.67,100.59H122a3.37,3.37,0,0,1-3.37-3.37h0A3.36,3.36,0,0,1,122,93.86h61.68A3.36,3.36,0,0,1,187,97.22h0A3.37,3.37,0,0,1,183.67,100.59Z"/></g></g></svg>