<svg id="Layer_1" data-name="Layer 1" xmlns="http://www.w3.org/2000/svg" viewBox="0 0 100 100"><defs><style>.cls-1{fill:#edffb5;}</style></defs><path class="cls-1" d="M79.44,56.12l-.13,0A15.68,15.68,0,0,0,64.92,34.25a15.55,15.55,0,0,0-8.32,2.41,21.81,21.81,0,0,0-42,8.28,23.67,23.67,0,0,0,.18,2.69h-.18a14.62,14.62,0,0,0,0,29.24H79.44a10.37,10.37,0,1,0,0-20.74Z"/><path class="cls-1" d="M71.37,26.73H38.23a1.8,1.8,0,0,1-1.8-1.8h0a1.8,1.8,0,0,1,1.8-1.79H71.37a1.79,1.79,0,0,1,1.8,1.79h0A1.79,1.79,0,0,1,71.37,26.73Z"/><path class="cls-1" d="M98.2,26.73H79a1.8,1.8,0,0,1-1.8-1.8h0A1.8,1.8,0,0,1,79,23.14H98.2a1.8,1.8,0,0,1,1.8,1.79h0A1.8,1.8,0,0,1,98.2,26.73Z"/><path class="cls-1" d="M85,37.85H65.16a1.79,1.79,0,0,1-1.8-1.8h0a1.8,1.8,0,0,1,1.8-1.8H85a1.8,1.8,0,0,1,1.79,1.8h0A1.79,1.79,0,0,1,85,37.85Z"/><path class="cls-1" d="M98.1,37.85H92.84a1.8,1.8,0,0,1-1.8-1.8h0a1.81,1.81,0,0,1,1.8-1.8H98.1a1.8,1.8,0,0,1,1.8,1.8h0A1.79,1.79,0,0,1,98.1,37.85Z"/><path class="cls-1" d="M98.1,59.6H65.16a1.8,1.8,0,0,1-1.8-1.8h0a1.79,1.79,0,0,1,1.8-1.8H98.1a1.79,1.79,0,0,1,1.8,1.8h0A1.8,1.8,0,0,1,98.1,59.6Z"/><path class="cls-1" d="M98.1,76.86H65.16a1.79,1.79,0,0,1-1.8-1.79h0a1.79,1.79,0,0,1,1.8-1.8H98.1a1.79,1.79,0,0,1,1.8,1.8h0A1.79,1.79,0,0,1,98.1,76.86Z"/></svg>